<?xml version="1.0" encoding="UTF-8" standalone="no"?>
<!-- Created with Inkscape (http://www.inkscape.org/) -->

<svg
   xmlns:dc="http://purl.org/dc/elements/1.1/"
   xmlns:cc="http://creativecommons.org/ns#"
   xmlns:rdf="http://www.w3.org/1999/02/22-rdf-syntax-ns#"
   xmlns:svg="http://www.w3.org/2000/svg"
   xmlns="http://www.w3.org/2000/svg"
   xmlns:sodipodi="http://sodipodi.sourceforge.net/DTD/sodipodi-0.dtd"
   xmlns:inkscape="http://www.inkscape.org/namespaces/inkscape"
   version="1.1"
   id="svg10"
   xml:space="preserve"
   width="587.51996"
   height="276.47998"
   viewBox="0 0 587.51996 276.47998"
   sodipodi:docname="main.svg"
   inkscape:version="0.92.4 (5da689c313, 2019-01-14)"><metadata
     id="metadata16"><rdf:RDF><cc:Work
         rdf:about=""><dc:format>image/svg+xml</dc:format><dc:type
           rdf:resource="http://purl.org/dc/dcmitype/StillImage" /><dc:title></dc:title></cc:Work></rdf:RDF></metadata><defs
     id="defs14"><clipPath
       clipPathUnits="userSpaceOnUse"
       id="clipPath26"><path
         d="M 50.4,518.16 H 547.08 V 738 H 50.4 Z"
         id="path24"
         inkscape:connector-curvature="0"
         style="clip-rule:evenodd" /></clipPath><clipPath
       clipPathUnits="userSpaceOnUse"
       id="clipPath56"><path
         d="M 50.4,530.64 H 491.04 V 738 H 50.4 Z"
         id="path54"
         inkscape:connector-curvature="0"
         style="clip-rule:evenodd" /></clipPath><clipPath
       clipPathUnits="userSpaceOnUse"
       id="clipPath68"><path
         d="M 50.4,530.64 H 491.04 V 738 H 50.4 Z"
         id="path66"
         inkscape:connector-curvature="0"
         style="clip-rule:evenodd" /></clipPath><clipPath
       clipPathUnits="userSpaceOnUse"
       id="clipPath80"><path
         d="M 50.4,530.64 H 491.04 V 738 H 50.4 Z"
         id="path78"
         inkscape:connector-curvature="0"
         style="clip-rule:evenodd" /></clipPath><clipPath
       clipPathUnits="userSpaceOnUse"
       id="clipPath92"><path
         d="M 50.4,530.64 H 491.04 V 738 H 50.4 Z"
         id="path90"
         inkscape:connector-curvature="0"
         style="clip-rule:evenodd" /></clipPath><clipPath
       clipPathUnits="userSpaceOnUse"
       id="clipPath104"><path
         d="M 50.4,530.64 H 491.04 V 738 H 50.4 Z"
         id="path102"
         inkscape:connector-curvature="0"
         style="clip-rule:evenodd" /></clipPath><clipPath
       clipPathUnits="userSpaceOnUse"
       id="clipPath116"><path
         d="M 50.4,530.64 H 491.04 V 738 H 50.4 Z"
         id="path114"
         inkscape:connector-curvature="0"
         style="clip-rule:evenodd" /></clipPath><clipPath
       clipPathUnits="userSpaceOnUse"
       id="clipPath128"><path
         d="M 50.4,530.64 H 491.04 V 738 H 50.4 Z"
         id="path126"
         inkscape:connector-curvature="0"
         style="clip-rule:evenodd" /></clipPath><clipPath
       clipPathUnits="userSpaceOnUse"
       id="clipPath140"><path
         d="M 50.4,530.64 H 491.04 V 738 H 50.4 Z"
         id="path138"
         inkscape:connector-curvature="0"
         style="clip-rule:evenodd" /></clipPath><clipPath
       clipPathUnits="userSpaceOnUse"
       id="clipPath152"><path
         d="M 50.4,530.64 H 491.04 V 738 H 50.4 Z"
         id="path150"
         inkscape:connector-curvature="0"
         style="clip-rule:evenodd" /></clipPath><clipPath
       clipPathUnits="userSpaceOnUse"
       id="clipPath164"><path
         d="M 50.4,530.64 H 491.04 V 738 H 50.4 Z"
         id="path162"
         inkscape:connector-curvature="0"
         style="clip-rule:evenodd" /></clipPath><clipPath
       clipPathUnits="userSpaceOnUse"
       id="clipPath176"><path
         d="M 50.4,530.64 H 491.04 V 738 H 50.4 Z"
         id="path174"
         inkscape:connector-curvature="0"
         style="clip-rule:evenodd" /></clipPath><clipPath
       clipPathUnits="userSpaceOnUse"
       id="clipPath188"><path
         d="M 50.4,530.64 H 491.04 V 738 H 50.4 Z"
         id="path186"
         inkscape:connector-curvature="0"
         style="clip-rule:evenodd" /></clipPath><clipPath
       clipPathUnits="userSpaceOnUse"
       id="clipPath200"><path
         d="M 50.4,530.64 H 491.04 V 738 H 50.4 Z"
         id="path198"
         inkscape:connector-curvature="0"
         style="clip-rule:evenodd" /></clipPath><clipPath
       clipPathUnits="userSpaceOnUse"
       id="clipPath212"><path
         d="M 50.4,530.64 H 491.04 V 738 H 50.4 Z"
         id="path210"
         inkscape:connector-curvature="0"
         style="clip-rule:evenodd" /></clipPath><clipPath
       clipPathUnits="userSpaceOnUse"
       id="clipPath224"><path
         d="M 50.4,530.64 H 491.04 V 738 H 50.4 Z"
         id="path222"
         inkscape:connector-curvature="0"
         style="clip-rule:evenodd" /></clipPath><clipPath
       clipPathUnits="userSpaceOnUse"
       id="clipPath236"><path
         d="M 50.4,530.64 H 491.04 V 738 H 50.4 Z"
         id="path234"
         inkscape:connector-curvature="0"
         style="clip-rule:evenodd" /></clipPath><clipPath
       clipPathUnits="userSpaceOnUse"
       id="clipPath248"><path
         d="M 50.4,530.64 H 491.04 V 738 H 50.4 Z"
         id="path246"
         inkscape:connector-curvature="0"
         style="clip-rule:evenodd" /></clipPath><clipPath
       clipPathUnits="userSpaceOnUse"
       id="clipPath260"><path
         d="M 50.4,530.64 H 491.04 V 738 H 50.4 Z"
         id="path258"
         inkscape:connector-curvature="0"
         style="clip-rule:evenodd" /></clipPath><clipPath
       clipPathUnits="userSpaceOnUse"
       id="clipPath272"><path
         d="M 50.4,530.64 H 491.04 V 738 H 50.4 Z"
         id="path270"
         inkscape:connector-curvature="0"
         style="clip-rule:evenodd" /></clipPath><clipPath
       clipPathUnits="userSpaceOnUse"
       id="clipPath284"><path
         d="M 50.4,530.64 H 491.04 V 738 H 50.4 Z"
         id="path282"
         inkscape:connector-curvature="0"
         style="clip-rule:evenodd" /></clipPath><clipPath
       clipPathUnits="userSpaceOnUse"
       id="clipPath296"><path
         d="M 50.4,530.64 H 491.04 V 738 H 50.4 Z"
         id="path294"
         inkscape:connector-curvature="0"
         style="clip-rule:evenodd" /></clipPath><clipPath
       clipPathUnits="userSpaceOnUse"
       id="clipPath308"><path
         d="M 50.4,530.64 H 491.04 V 738 H 50.4 Z"
         id="path306"
         inkscape:connector-curvature="0"
         style="clip-rule:evenodd" /></clipPath><clipPath
       clipPathUnits="userSpaceOnUse"
       id="clipPath320"><path
         d="M 50.4,530.64 H 491.04 V 738 H 50.4 Z"
         id="path318"
         inkscape:connector-curvature="0"
         style="clip-rule:evenodd" /></clipPath><clipPath
       clipPathUnits="userSpaceOnUse"
       id="clipPath332"><path
         d="M 50.4,530.64 H 491.04 V 738 H 50.4 Z"
         id="path330"
         inkscape:connector-curvature="0"
         style="clip-rule:evenodd" /></clipPath><clipPath
       clipPathUnits="userSpaceOnUse"
       id="clipPath344"><path
         d="M 50.4,530.64 H 491.04 V 738 H 50.4 Z"
         id="path342"
         inkscape:connector-curvature="0"
         style="clip-rule:evenodd" /></clipPath><clipPath
       clipPathUnits="userSpaceOnUse"
       id="clipPath356"><path
         d="M 50.4,530.64 H 491.04 V 738 H 50.4 Z"
         id="path354"
         inkscape:connector-curvature="0"
         style="clip-rule:evenodd" /></clipPath><clipPath
       clipPathUnits="userSpaceOnUse"
       id="clipPath368"><path
         d="M 50.4,530.64 H 491.04 V 738 H 50.4 Z"
         id="path366"
         inkscape:connector-curvature="0"
         style="clip-rule:evenodd" /></clipPath><clipPath
       clipPathUnits="userSpaceOnUse"
       id="clipPath380"><path
         d="M 50.4,530.64 H 491.04 V 738 H 50.4 Z"
         id="path378"
         inkscape:connector-curvature="0"
         style="clip-rule:evenodd" /></clipPath><clipPath
       clipPathUnits="userSpaceOnUse"
       id="clipPath392"><path
         d="M 50.4,530.64 H 491.04 V 738 H 50.4 Z"
         id="path390"
         inkscape:connector-curvature="0"
         style="clip-rule:evenodd" /></clipPath><clipPath
       clipPathUnits="userSpaceOnUse"
       id="clipPath404"><path
         d="M 50.4,530.64 H 491.04 V 738 H 50.4 Z"
         id="path402"
         inkscape:connector-curvature="0"
         style="clip-rule:evenodd" /></clipPath><clipPath
       clipPathUnits="userSpaceOnUse"
       id="clipPath416"><path
         d="M 50.4,530.64 H 491.04 V 738 H 50.4 Z"
         id="path414"
         inkscape:connector-curvature="0"
         style="clip-rule:evenodd" /></clipPath><clipPath
       clipPathUnits="userSpaceOnUse"
       id="clipPath428"><path
         d="M 50.4,530.64 H 491.04 V 738 H 50.4 Z"
         id="path426"
         inkscape:connector-curvature="0"
         style="clip-rule:evenodd" /></clipPath><clipPath
       clipPathUnits="userSpaceOnUse"
       id="clipPath440"><path
         d="M 50.4,530.64 H 491.04 V 738 H 50.4 Z"
         id="path438"
         inkscape:connector-curvature="0"
         style="clip-rule:evenodd" /></clipPath></defs><sodipodi:namedview
     pagecolor="#ffffff"
     bordercolor="#666666"
     borderopacity="1"
     objecttolerance="10"
     gridtolerance="10"
     guidetolerance="10"
     inkscape:pageopacity="0"
     inkscape:pageshadow="2"
     inkscape:window-width="2560"
     inkscape:window-height="1378"
     id="namedview12"
     showgrid="false"
     inkscape:pagecheckerboard="true"
     inkscape:zoom="0.86268939"
     inkscape:cx="340.8"
     inkscape:cy="-179.51998"
     inkscape:window-x="-8"
     inkscape:window-y="-8"
     inkscape:window-maximized="1"
     inkscape:current-layer="g18" /><g
     id="g18"
     inkscape:groupmode="layer"
     inkscape:label="main"
     transform="matrix(1.3333333,0,0,-1.3333333,-67.199998,983.99998)"><g
       id="g20"><g
         id="g22"
         clip-path="url(#clipPath26)"><path
           d="M 50.4,530.64 H 491.04 V 738 H 50.4 Z"
           style="fill:#ffffff;fill-opacity:1;fill-rule:evenodd;stroke:none"
           id="path28"
           inkscape:connector-curvature="0" /></g></g><path
       d="M 75.36,566.04 H 428.27 M 75.36,583.44 H 428.27 M 75.36,600.84 H 428.27 M 75.36,618.24 H 428.27 M 75.36,635.64 H 428.27 M 75.36,653.16 h 352.91 m -352.91,17.4 h 352.91 m -352.91,17.4 h 352.91 m -352.91,17.4 h 352.91"
       style="fill:none;stroke:#d9d9d9;stroke-width:0.75;stroke-linecap:butt;stroke-linejoin:round;stroke-miterlimit:10;stroke-dasharray:none;stroke-opacity:1"
       id="path30"
       inkscape:connector-curvature="0" /><path
       d="m 75.36,579.6 5.88,0.6 5.88,-0.24 5.88,0.6 5.88,0.84 5.88,0.96 5.88,1.2 5.88,0.96 5.88,1.08 5.88,0.96 5.88,2.04 5.88,1.08 5.88,1.44 5.88,1.68 5.88,2.04 5.88,1.68 5.88,2.04 5.88,2.64 5.88,0.24 5.88,-0.6 5.88,3.36 5.88,1.68 5.88,0.36 5.88,1.32 5.88,0.6 5.88,0.72 5.88,0.96 5.88,0.36 5.88,0.36 5.88,-0.12 h 5.88 l 5.88,0.12 5.88,0.12 5.88,0.24 5.88,0.24 6,0.36 5.88,0.36 5.88,0.36 5.88,0.36 5.88,0.36 5.88,0.36 5.88,0.6 5.88,0.48 5.88,0.6 5.88,0.6 5.88,0.48 5.88,0.6 5.88,0.6 5.88,0.48 5.88,0.6 5.88,0.6 5.88,0.72 5.88,0.72 5.88,0.72 5.88,0.84 5.88,0.72 5.88,0.96 5.88,0.84 5.88,0.96 5.88,0.96 5.87,0.9 v -78.7 h -5.87 -5.88 -5.88 -5.88 -5.88 -5.88 -5.88 -5.88 -5.88 -5.88 -5.88 -5.88 -5.88 -5.88 -5.88 -5.88 -5.88 -5.88 -5.88 -5.88 -5.88 -5.88 -5.88 -5.88 -5.88 -6 -5.88 -5.88 -5.88 -5.88 -5.88 -5.88 -5.88 -5.88 -5.88 -5.88 -5.88 -5.88 -5.88 -5.88 -5.88 -5.88 -5.88 -5.88 -5.88 -5.88 -5.88 -5.88 -5.88 -5.88 -5.88 -5.88 -5.88 -5.88 -5.88 H 98.88 93 87.12 81.24 75.36 Z"
       style="fill:#bfbfbf;fill-opacity:1;fill-rule:nonzero;stroke:none"
       id="path32"
       inkscape:connector-curvature="0" /><path
       d="m 75.36,587.16 5.88,0.6 5.88,-0.24 5.88,1.08 5.88,0.84 5.88,1.44 5.88,1.32 5.88,1.08 5.88,1.2 5.88,1.08 5.88,2.16 5.88,0.84 5.88,1.56 5.88,1.8 5.88,2.52 5.88,2.16 5.88,2.52 5.88,2.64 5.88,0.84 5.88,-0.6 5.88,3.96 5.88,2.04 5.88,0.84 5.88,1.68 5.88,0.96 5.88,0.72 5.88,1.44 5.88,1.08 5.88,0.96 5.88,0.48 5.88,0.72 5.88,0.36 5.88,0.6 5.88,0.48 5.88,0.6 6,0.6 5.88,0.6 5.88,0.48 5.88,0.48 5.88,0.6 5.88,0.48 5.88,0.72 5.88,0.72 5.88,0.72 5.88,0.72 5.88,0.72 5.88,0.6 5.88,0.72 5.88,0.6 5.88,0.6 5.88,0.72 5.88,0.84 5.88,0.84 5.88,0.84 5.88,0.84 5.88,0.84 5.88,0.96 5.88,0.96 5.88,1.08 5.88,0.96 5.87,1 v -20.92 l -5.87,-0.84 -5.88,-0.96 -5.88,-0.96 -5.88,-0.84 -5.88,-0.96 -5.88,-0.72 -5.88,-0.84 -5.88,-0.72 -5.88,-0.72 -5.88,-0.72 -5.88,-0.6 -5.88,-0.6 -5.88,-0.48 -5.88,-0.6 -5.88,-0.6 -5.88,-0.48 -5.88,-0.6 -5.88,-0.6 -5.88,-0.48 -5.88,-0.6 -5.88,-0.36 -5.88,-0.36 -5.88,-0.36 -5.88,-0.36 -5.88,-0.36 -6,-0.36 -5.88,-0.24 -5.88,-0.24 -5.88,-0.12 -5.88,-0.12 h -5.88 l -5.88,0.12 -5.88,-0.36 -5.88,-0.36 -5.88,-0.96 -5.88,-0.72 -5.88,-0.6 -5.88,-1.32 -5.88,-0.36 -5.88,-1.68 -5.88,-3.36 -5.88,0.6 -5.88,-0.24 -5.88,-2.64 -5.88,-2.04 -5.88,-1.68 -5.88,-2.04 -5.88,-1.68 -5.88,-1.44 -5.88,-1.08 -5.88,-2.04 -5.88,-0.96 -5.88,-1.08 -5.88,-0.96 -5.88,-1.2 -5.88,-0.96 -5.88,-0.84 -5.88,-0.6 -5.88,0.24 -5.88,-0.56 z"
       style="fill:#004b6c;fill-opacity:1;fill-rule:nonzero;stroke:none"
       id="path34"
       inkscape:connector-curvature="0" /><path
       d="m 75.36,587.16 5.88,0.6 5.88,-0.24 5.88,1.08 5.88,0.84 5.88,1.44 5.88,1.32 5.88,1.08 5.88,1.2 5.88,1.2 5.88,2.16 5.88,0.84 5.88,1.68 5.88,1.8 5.88,2.64 5.88,2.16 5.88,2.64 5.88,2.76 5.88,0.96 5.88,-0.36 5.88,4.2 5.88,2.28 5.88,1.32 5.88,2.04 5.88,1.2 5.88,1.2 5.88,1.8 5.88,2.4 5.88,1.32 5.88,0.96 5.88,1.2 5.88,0.96 5.88,0.96 5.88,0.96 5.88,0.96 6,1.08 5.88,1.08 5.88,1.08 5.88,1.08 5.88,1.08 5.88,1.08 5.88,1.32 5.88,1.44 5.88,1.32 5.88,1.44 5.88,1.32 5.88,1.44 5.88,1.44 5.88,1.44 5.88,1.44 5.88,1.44 5.88,1.44 5.88,1.56 5.88,1.56 5.88,1.56 5.88,1.56 5.88,1.32 5.88,1.32 5.88,1.32 5.88,1.32 5.87,1.33 v -23.41 l -5.87,-0.96 -5.88,-0.96 -5.88,-1.08 -5.88,-0.96 -5.88,-0.96 -5.88,-0.84 -5.88,-0.84 -5.88,-0.84 -5.88,-0.84 -5.88,-0.84 -5.88,-0.72 -5.88,-0.6 -5.88,-0.6 -5.88,-0.72 -5.88,-0.6 -5.88,-0.72 -5.88,-0.72 -5.88,-0.72 -5.88,-0.72 -5.88,-0.72 -5.88,-0.48 -5.88,-0.6 -5.88,-0.48 -5.88,-0.48 -5.88,-0.6 -6,-0.6 -5.88,-0.6 -5.88,-0.48 -5.88,-0.6 -5.88,-0.36 -5.88,-0.72 -5.88,-0.48 -5.88,-0.96 -5.88,-1.08 -5.88,-1.44 -5.88,-0.72 -5.88,-0.96 -5.88,-1.68 -5.88,-0.84 -5.88,-2.04 -5.88,-3.96 -5.88,0.6 -5.88,-0.84 -5.88,-2.64 -5.88,-2.52 -5.88,-2.16 -5.88,-2.52 -5.88,-1.8 -5.88,-1.56 -5.88,-0.84 -5.88,-2.16 -5.88,-1.08 -5.88,-1.2 -5.88,-1.08 -5.88,-1.32 -5.88,-1.44 -5.88,-0.84 -5.88,-1.08 -5.88,0.24 -5.88,-0.65 z"
       style="fill:#467126;fill-opacity:1;fill-rule:nonzero;stroke:none"
       id="path36"
       inkscape:connector-curvature="0" /><path
       d="m 75.36,587.16 5.88,0.6 5.88,-0.24 5.88,1.08 5.88,0.84 5.88,1.44 5.88,1.32 5.88,1.08 5.88,1.2 5.88,1.2 5.88,2.16 5.88,0.84 5.88,1.68 5.88,1.8 5.88,2.64 5.88,2.28 5.88,2.52 5.88,2.88 5.88,0.84 5.88,-0.24 5.88,4.2 5.88,2.4 5.88,1.44 5.88,2.16 5.88,1.44 5.88,1.32 5.88,2.16 5.88,3.6 5.88,2.04 5.88,1.56 5.88,1.92 5.88,1.68 5.88,1.68 5.88,1.56 5.88,1.68 6,1.56 5.88,2.04 5.88,1.92 5.88,1.92 5.88,2.04 5.88,1.92 5.88,2.04 5.88,2.04 5.88,1.92 5.88,2.04 5.88,2.16 5.88,2.04 5.88,2.16 5.88,2.04 5.88,2.16 5.88,2.16 5.88,2.52 5.88,2.64 5.88,2.64 5.88,2.52 5.88,2.64 5.88,2.28 5.88,2.28 5.88,2.4 5.88,2.28 5.87,2.27 v -29.03 l -5.87,-1.32 -5.88,-1.32 -5.88,-1.32 -5.88,-1.32 -5.88,-1.32 -5.88,-1.56 -5.88,-1.56 -5.88,-1.56 -5.88,-1.56 -5.88,-1.44 -5.88,-1.44 -5.88,-1.44 -5.88,-1.44 -5.88,-1.44 -5.88,-1.44 -5.88,-1.32 -5.88,-1.44 -5.88,-1.32 -5.88,-1.44 -5.88,-1.32 -5.88,-1.08 -5.88,-1.08 -5.88,-1.08 -5.88,-1.08 -5.88,-1.08 -6,-1.08 -5.88,-0.96 -5.88,-0.96 -5.88,-0.96 -5.88,-0.96 -5.88,-1.2 -5.88,-0.96 -5.88,-1.32 -5.88,-2.4 -5.88,-1.8 -5.88,-1.2 -5.88,-1.2 -5.88,-2.04 -5.88,-1.32 -5.88,-2.28 -5.88,-4.2 -5.88,0.36 -5.88,-0.96 -5.88,-2.76 -5.88,-2.64 -5.88,-2.16 -5.88,-2.64 -5.88,-1.8 -5.88,-1.68 -5.88,-0.84 -5.88,-2.16 -5.88,-1.2 -5.88,-1.2 -5.88,-1.08 -5.88,-1.32 -5.88,-1.44 -5.88,-0.84 -5.88,-1.08 -5.88,0.24 -5.88,-0.64 z"
       style="fill:#ffc702;fill-opacity:1;fill-rule:nonzero;stroke:none"
       id="path38"
       inkscape:connector-curvature="0" /><path
       d="m 75.36,587.4 5.88,0.72 5.88,-0.24 5.88,1.2 5.88,0.84 5.88,1.44 5.88,1.32 5.88,1.2 5.88,1.2 5.88,1.08 5.88,2.28 5.88,0.84 5.88,1.8 5.88,1.8 5.88,2.76 5.88,2.28 5.88,2.64 5.88,2.88 5.88,1.08 5.88,-0.24 5.88,4.44 5.88,2.52 5.88,1.44 5.88,2.4 5.88,1.56 5.88,1.44 5.88,2.28 5.88,2.16 5.88,2.4 5.88,1.8 5.88,2.04 5.88,1.68 5.88,1.68 5.88,1.56 5.88,1.68 6,1.56 5.88,2.04 5.88,2.04 5.88,1.92 5.88,2.04 5.88,1.92 5.88,2.04 5.88,2.04 5.88,2.04 5.88,2.04 5.88,2.16 5.88,2.16 5.88,2.04 5.88,2.16 5.88,2.16 5.88,2.16 5.88,2.52 5.88,2.64 5.88,2.64 5.88,2.52 5.88,2.64 5.88,2.4 5.88,2.4 5.88,2.28 5.88,2.4 5.87,2.42 v -2.18 l -5.87,-2.28 -5.88,-2.28 -5.88,-2.4 -5.88,-2.28 -5.88,-2.28 -5.88,-2.64 -5.88,-2.52 -5.88,-2.64 -5.88,-2.64 -5.88,-2.52 -5.88,-2.16 -5.88,-2.16 -5.88,-2.04 -5.88,-2.16 -5.88,-2.04 -5.88,-2.16 -5.88,-2.04 -5.88,-1.92 -5.88,-2.04 -5.88,-2.04 -5.88,-1.92 -5.88,-2.04 -5.88,-1.92 -5.88,-1.92 -5.88,-2.04 -6,-1.56 -5.88,-1.68 -5.88,-1.56 -5.88,-1.68 -5.88,-1.68 -5.88,-1.92 -5.88,-1.56 -5.88,-2.04 -5.88,-3.6 -5.88,-2.16 -5.88,-1.32 -5.88,-1.44 -5.88,-2.16 -5.88,-1.44 -5.88,-2.4 -5.88,-4.2 -5.88,0.24 -5.88,-0.84 -5.88,-2.88 -5.88,-2.52 -5.88,-2.28 -5.88,-2.64 -5.88,-1.8 -5.88,-1.68 -5.88,-0.84 -5.88,-2.16 -5.88,-1.2 -5.88,-1.2 -5.88,-1.08 -5.88,-1.32 -5.88,-1.44 -5.88,-0.84 -5.88,-1.08 -5.88,0.24 -5.88,-0.64 z"
       style="fill:#e1ab76;fill-opacity:1;fill-rule:nonzero;stroke:none"
       id="path40"
       inkscape:connector-curvature="0" /><g
       id="g42"><path
         d="M 240.05,548.6 V 705.36"
         style="fill:none;stroke:#a6a6a6;stroke-width:0.75;stroke-linecap:butt;stroke-linejoin:round;stroke-miterlimit:10;stroke-dasharray:6, 2.25;stroke-dashoffset:0;stroke-opacity:1"
         id="path44"
         inkscape:connector-curvature="0" /></g><path
       d="M 75.36,548.6 H 428.27"
       style="fill:none;stroke:#000000;stroke-width:0.75;stroke-linecap:butt;stroke-linejoin:round;stroke-miterlimit:10;stroke-dasharray:none;stroke-opacity:1"
       id="path46"
       inkscape:connector-curvature="0" /><path
       d="m 75.36,548.6 v -3.02 m 58.8,3.02 v -3.02 m 58.8,3.02 v -3.02 m 58.8,3.02 v -3.02 m 58.92,3.02 v -3.02 m 58.8,3.02 v -3.02 m 58.79,3.02 v -3.02"
       style="fill:none;stroke:#000000;stroke-width:0.75;stroke-linecap:butt;stroke-linejoin:round;stroke-miterlimit:10;stroke-dasharray:none;stroke-opacity:1"
       id="path48"
       inkscape:connector-curvature="0" /><g
       id="g50"><g
         id="g52"
         clip-path="url(#clipPath56)"><text
           transform="matrix(1,0,0,-1,61.2,545.45)"
           style="font-variant:normal;font-weight:normal;font-size:9.96000004px;font-family:Arial;-inkscape-font-specification:ArialMT;writing-mode:lr-tb;fill:#000000;fill-opacity:1;fill-rule:nonzero;stroke:none"
           id="text60"><tspan
             x="0"
             y="0"
             id="tspan58">0</tspan></text>
</g></g><g
       id="g62"><g
         id="g64"
         clip-path="url(#clipPath68)"><text
           transform="matrix(1,0,0,-1,61.2,562.87)"
           style="font-variant:normal;font-weight:normal;font-size:9.96000004px;font-family:Arial;-inkscape-font-specification:ArialMT;writing-mode:lr-tb;fill:#000000;fill-opacity:1;fill-rule:nonzero;stroke:none"
           id="text72"><tspan
             x="0"
             y="0"
             id="tspan70">5</tspan></text>
</g></g><g
       id="g74"><g
         id="g76"
         clip-path="url(#clipPath80)"><text
           transform="matrix(1,0,0,-1,55.632,580.3)"
           style="font-variant:normal;font-weight:normal;font-size:9.96000004px;font-family:Arial;-inkscape-font-specification:ArialMT;writing-mode:lr-tb;fill:#000000;fill-opacity:1;fill-rule:nonzero;stroke:none"
           id="text84"><tspan
             x="0 5.5199599"
             y="0"
             sodipodi:role="line"
             id="tspan82">10</tspan></text>
</g></g><g
       id="g86"><g
         id="g88"
         clip-path="url(#clipPath92)"><text
           transform="matrix(1,0,0,-1,55.632,597.7)"
           style="font-variant:normal;font-weight:normal;font-size:9.96000004px;font-family:Arial;-inkscape-font-specification:ArialMT;writing-mode:lr-tb;fill:#000000;fill-opacity:1;fill-rule:nonzero;stroke:none"
           id="text96"><tspan
             x="0 5.5199599"
             y="0"
             sodipodi:role="line"
             id="tspan94">15</tspan></text>
</g></g><g
       id="g98"><g
         id="g100"
         clip-path="url(#clipPath104)"><text
           transform="matrix(1,0,0,-1,55.632,615.12)"
           style="font-variant:normal;font-weight:normal;font-size:9.96000004px;font-family:Arial;-inkscape-font-specification:ArialMT;writing-mode:lr-tb;fill:#000000;fill-opacity:1;fill-rule:nonzero;stroke:none"
           id="text108"><tspan
             x="0 5.5199599"
             y="0"
             sodipodi:role="line"
             id="tspan106">20</tspan></text>
</g></g><g
       id="g110"><g
         id="g112"
         clip-path="url(#clipPath116)"><text
           transform="matrix(1,0,0,-1,55.632,632.54)"
           style="font-variant:normal;font-weight:normal;font-size:9.96000004px;font-family:Arial;-inkscape-font-specification:ArialMT;writing-mode:lr-tb;fill:#000000;fill-opacity:1;fill-rule:nonzero;stroke:none"
           id="text120"><tspan
             x="0 5.5199599"
             y="0"
             sodipodi:role="line"
             id="tspan118">25</tspan></text>
</g></g><g
       id="g122"><g
         id="g124"
         clip-path="url(#clipPath128)"><text
           transform="matrix(1,0,0,-1,55.632,649.97)"
           style="font-variant:normal;font-weight:normal;font-size:9.96000004px;font-family:Arial;-inkscape-font-specification:ArialMT;writing-mode:lr-tb;fill:#000000;fill-opacity:1;fill-rule:nonzero;stroke:none"
           id="text132"><tspan
             x="0 5.5199599"
             y="0"
             sodipodi:role="line"
             id="tspan130">30</tspan></text>
</g></g><g
       id="g134"><g
         id="g136"
         clip-path="url(#clipPath140)"><text
           transform="matrix(1,0,0,-1,55.632,667.39)"
           style="font-variant:normal;font-weight:normal;font-size:9.96000004px;font-family:Arial;-inkscape-font-specification:ArialMT;writing-mode:lr-tb;fill:#000000;fill-opacity:1;fill-rule:nonzero;stroke:none"
           id="text144"><tspan
             x="0 5.5199599"
             y="0"
             sodipodi:role="line"
             id="tspan142">35</tspan></text>
</g></g><g
       id="g146"><g
         id="g148"
         clip-path="url(#clipPath152)"><text
           transform="matrix(1,0,0,-1,55.632,684.82)"
           style="font-variant:normal;font-weight:normal;font-size:9.96000004px;font-family:Arial;-inkscape-font-specification:ArialMT;writing-mode:lr-tb;fill:#000000;fill-opacity:1;fill-rule:nonzero;stroke:none"
           id="text156"><tspan
             x="0 5.5199599"
             y="0"
             sodipodi:role="line"
             id="tspan154">40</tspan></text>
</g></g><g
       id="g158"><g
         id="g160"
         clip-path="url(#clipPath164)"><text
           transform="matrix(1,0,0,-1,55.632,702.22)"
           style="font-variant:normal;font-weight:normal;font-size:9.96000004px;font-family:Arial;-inkscape-font-specification:ArialMT;writing-mode:lr-tb;fill:#000000;fill-opacity:1;fill-rule:nonzero;stroke:none"
           id="text168"><tspan
             x="0 5.5199599"
             y="0"
             sodipodi:role="line"
             id="tspan166">45</tspan></text>
</g></g><g
       id="g170"><g
         id="g172"
         clip-path="url(#clipPath176)"><text
           transform="matrix(1,0,0,-1,64.248,533.52)"
           style="font-variant:normal;font-weight:normal;font-size:9.96000004px;font-family:Arial;-inkscape-font-specification:ArialMT;writing-mode:lr-tb;fill:#000000;fill-opacity:1;fill-rule:nonzero;stroke:none"
           id="text180"><tspan
             x="0 5.5377598 11.14524 16.683001"
             y="0"
             sodipodi:role="line"
             id="tspan178">1990</tspan></text>
</g></g><g
       id="g182"><g
         id="g184"
         clip-path="url(#clipPath188)"><text
           transform="matrix(1,0,0,-1,123.07,533.52)"
           style="font-variant:normal;font-weight:normal;font-size:9.96000004px;font-family:Arial;-inkscape-font-specification:ArialMT;writing-mode:lr-tb;fill:#000000;fill-opacity:1;fill-rule:nonzero;stroke:none"
           id="text192"><tspan
             x="0 5.5377598 11.14524 16.683001"
             y="0"
             sodipodi:role="line"
             id="tspan190">2000</tspan></text>
</g></g><g
       id="g194"><g
         id="g196"
         clip-path="url(#clipPath200)"><text
           transform="matrix(1,0,0,-1,181.9,533.52)"
           style="font-variant:normal;font-weight:normal;font-size:9.96000004px;font-family:Arial;-inkscape-font-specification:ArialMT;writing-mode:lr-tb;fill:#000000;fill-opacity:1;fill-rule:nonzero;stroke:none"
           id="text204"><tspan
             x="0 5.5377598 11.14524 16.683001"
             y="0"
             sodipodi:role="line"
             id="tspan202">2010</tspan></text>
</g></g><g
       id="g206"><g
         id="g208"
         clip-path="url(#clipPath212)"><text
           transform="matrix(1,0,0,-1,240.72,533.52)"
           style="font-variant:normal;font-weight:normal;font-size:9.96000004px;font-family:Arial;-inkscape-font-specification:ArialMT;writing-mode:lr-tb;fill:#000000;fill-opacity:1;fill-rule:nonzero;stroke:none"
           id="text216"><tspan
             x="0 5.5377598 11.14524 16.683001"
             y="0"
             sodipodi:role="line"
             id="tspan214">2020</tspan></text>
</g></g><g
       id="g218"><g
         id="g220"
         clip-path="url(#clipPath224)"><text
           transform="matrix(1,0,0,-1,299.57,533.52)"
           style="font-variant:normal;font-weight:normal;font-size:9.96000004px;font-family:Arial;-inkscape-font-specification:ArialMT;writing-mode:lr-tb;fill:#000000;fill-opacity:1;fill-rule:nonzero;stroke:none"
           id="text228"><tspan
             x="0 5.5377598 11.14524 16.683001"
             y="0"
             sodipodi:role="line"
             id="tspan226">2030</tspan></text>
</g></g><g
       id="g230"><g
         id="g232"
         clip-path="url(#clipPath236)"><text
           transform="matrix(1,0,0,-1,358.39,533.52)"
           style="font-variant:normal;font-weight:normal;font-size:9.96000004px;font-family:Arial;-inkscape-font-specification:ArialMT;writing-mode:lr-tb;fill:#000000;fill-opacity:1;fill-rule:nonzero;stroke:none"
           id="text240"><tspan
             x="0 5.5377598 11.14524 16.683001"
             y="0"
             sodipodi:role="line"
             id="tspan238">2040</tspan></text>
</g></g><g
       id="g242"><g
         id="g244"
         clip-path="url(#clipPath248)"><text
           transform="matrix(1,0,0,-1,417.22,533.52)"
           style="font-variant:normal;font-weight:normal;font-size:9.96000004px;font-family:Arial;-inkscape-font-specification:ArialMT;writing-mode:lr-tb;fill:#000000;fill-opacity:1;fill-rule:nonzero;stroke:none"
           id="text252"><tspan
             x="0 5.5377598 11.14524 16.683001"
             y="0"
             sodipodi:role="line"
             id="tspan250">2050</tspan></text>
</g></g><g
       id="g254"><g
         id="g256"
         clip-path="url(#clipPath260)"><text
           transform="matrix(1,0,0,-1,52.56,726.48)"
           style="font-variant:normal;font-weight:bold;font-size:9.96000004px;font-family:Arial;-inkscape-font-specification:Arial-BoldMT;writing-mode:lr-tb;fill:#000000;fill-opacity:1;fill-rule:nonzero;stroke:none"
           id="text264"><tspan
             x="0 9.4719601 15.57744 19.422001 22.19088 28.27644 31.045321 37.170719 42.708481 46.025162 48.794041 54.331799 57.100681 62.638439 68.126404 71.472961 75.31752 78.086403 83.624161 86.353203 89.69976 95.098083 98.325119 104.4306 109.96836 116.05392 121.59168 125.42628 130.96404 134.28072 137.04961 143.175 149.28049"
             y="0"
             sodipodi:role="line"
             id="tspan262">World net electricity generation,</tspan></text>
</g></g><g
       id="g266"><g
         id="g268"
         clip-path="url(#clipPath272)"><text
           transform="matrix(1,0,0,-1,207.62,726.48)"
           style="font-variant:normal;font-weight:bold;font-size:9.96000004px;font-family:Arial;-inkscape-font-specification:Arial-BoldMT;writing-mode:lr-tb;fill:#000000;fill-opacity:1;fill-rule:nonzero;stroke:none"
           id="text276"><tspan
             x="0 2.7688799 9.3624001 17.151119 22.688881 28.1868 33.72456 39.222481 42.21048 49.4016 54.939362 58.275959 63.813721 67.638359 73.176117 79.261681 84.799438 90.337196 93.305283 98.84304 104.34096 109.87872 115.37664"
             y="0"
             sodipodi:role="line"
             id="tspan274">IEO2019 Reference case </tspan></text>
</g></g><g
       id="g278"><g
         id="g280"
         clip-path="url(#clipPath284)"><text
           transform="matrix(1,0,0,-1,328.85,726.48)"
           style="font-variant:normal;font-weight:bold;font-size:9.96000004px;font-family:Arial;-inkscape-font-specification:Arial-BoldMT;writing-mode:lr-tb;fill:#000000;fill-opacity:1;fill-rule:nonzero;stroke:none"
           id="text288"><tspan
             x="0 3.34656 8.8843203 14.38224 19.92"
             y="0"
             sodipodi:role="line"
             id="tspan286">(1990</tspan></text>
</g></g><g
       id="g290"><g
         id="g292"
         clip-path="url(#clipPath296)"><text
           transform="matrix(1,0,0,-1,354.29,726.48)"
           style="font-variant:normal;font-weight:bold;font-size:9.96000004px;font-family:Arial;-inkscape-font-specification:Arial-BoldMT;writing-mode:lr-tb;fill:#000000;fill-opacity:1;fill-rule:nonzero;stroke:none"
           id="text300"><tspan
             x="0"
             y="0"
             id="tspan298">-</tspan></text>
</g></g><g
       id="g302"><g
         id="g304"
         clip-path="url(#clipPath308)"><text
           transform="matrix(1,0,0,-1,357.65,726.48)"
           style="font-variant:normal;font-weight:bold;font-size:9.96000004px;font-family:Arial;-inkscape-font-specification:Arial-BoldMT;writing-mode:lr-tb;fill:#000000;fill-opacity:1;fill-rule:nonzero;stroke:none"
           id="text312"><tspan
             x="0 5.5440001 11.088 16.632"
             y="0"
             sodipodi:role="line"
             id="tspan310">2050</tspan></text>
</g></g><g
       id="g314"><g
         id="g316"
         clip-path="url(#clipPath320)"><text
           transform="matrix(1,0,0,-1,379.75,726.48)"
           style="font-variant:normal;font-weight:normal;font-size:9.96000004px;font-family:Arial;-inkscape-font-specification:ArialMT;writing-mode:lr-tb;fill:#000000;fill-opacity:1;fill-rule:nonzero;stroke:none"
           id="text324"><tspan
             x="0"
             y="0"
             id="tspan322">)</tspan></text>
</g></g><g
       id="g326"><g
         id="g328"
         clip-path="url(#clipPath332)"><text
           transform="matrix(1,0,0,-1,52.56,714.96)"
           style="font-variant:normal;font-weight:normal;font-size:9.98400021px;font-family:Arial;-inkscape-font-specification:ArialMT;writing-mode:lr-tb;fill:#000000;fill-opacity:1;fill-rule:nonzero;stroke:none"
           id="text336"><tspan
             x="0 2.775552 6.100224 8.2767363 10.43328 12.589824 14.746368 20.267521"
             y="0"
             sodipodi:role="line"
             id="tspan334">trillion</tspan></text>
</g></g><g
       id="g338"><g
         id="g340"
         clip-path="url(#clipPath344)"><text
           transform="matrix(1,0,0,-1,81.48,714.96)"
           style="font-variant:normal;font-weight:normal;font-size:9.98400021px;font-family:Arial;-inkscape-font-specification:ArialMT;writing-mode:lr-tb;fill:#000000;fill-opacity:1;fill-rule:nonzero;stroke:none"
           id="text348"><tspan
             x="0 5.1517439 7.3082881 9.4648323 14.985984 22.06464 27.585793 30.361343 33.106945 38.628098 44.149246 49.670399 53.025024"
             y="0"
             sodipodi:role="line"
             id="tspan346">kilowatthours</tspan></text>
</g></g><g
       id="g350"><g
         id="g352"
         clip-path="url(#clipPath356)"><text
           transform="matrix(1,0,0,-1,188.26,691.9)"
           style="font-variant:normal;font-weight:normal;font-size:9.96000004px;font-family:Arial;-inkscape-font-specification:ArialMT;writing-mode:lr-tb;fill:#333333;fill-opacity:1;fill-rule:nonzero;stroke:none"
           id="text360"><tspan
             x="0 5.5377598 7.6791601 12.70896 15.47784 21.0156 24.332279 29.0334 71.124359 76.622276 79.968842 85.506599 87.757561 93.295319 98.305199 101.07408 103.22544 108.7632"
             y="0"
             sodipodi:role="line"
             id="tspan358">history projection</tspan></text>
</g></g><g
       id="g362"><g
         id="g364"
         clip-path="url(#clipPath368)"><text
           transform="matrix(1,0,0,-1,432.07,707.26)"
           style="font-variant:normal;font-weight:bold;font-size:9px;font-family:Arial;-inkscape-font-specification:Arial-BoldMT;writing-mode:lr-tb;fill:#e1ab76;fill-opacity:1;fill-rule:nonzero;stroke:none"
           id="text372"><tspan
             x="0 5.4990001 8.4960003 14.031 19.062"
             y="0"
             sodipodi:role="line"
             id="tspan370">other</tspan></text>
</g></g><g
       id="g374"><g
         id="g376"
         clip-path="url(#clipPath380)"><text
           transform="matrix(1,0,0,-1,432.07,696.82)"
           style="font-variant:normal;font-weight:bold;font-size:9px;font-family:Arial;-inkscape-font-specification:Arial-BoldMT;writing-mode:lr-tb;fill:#e1ab76;fill-opacity:1;fill-rule:nonzero;stroke:none"
           id="text384"><tspan
             x="0 3.5009999 8.5050001 14.031 19.062 26.253 31.284 36.783001 39.312 44.342999"
             y="0"
             sodipodi:role="line"
             id="tspan382">renewables</tspan></text>
</g></g><g
       id="g386"><g
         id="g388"
         clip-path="url(#clipPath392)"><text
           transform="matrix(1,0,0,-1,432.07,680.98)"
           style="font-variant:normal;font-weight:bold;font-size:9.96000004px;font-family:Arial;-inkscape-font-specification:Arial-BoldMT;writing-mode:lr-tb;fill:#ffc702;fill-opacity:1;fill-rule:nonzero;stroke:none"
           id="text396"><tspan
             x="0 5.5377598 11.62332 14.3922 19.92996"
             y="0"
             sodipodi:role="line"
             id="tspan394">solar</tspan></text>
</g></g><g
       id="g398"><g
         id="g400"
         clip-path="url(#clipPath404)"><text
           transform="matrix(1,0,0,-1,432.07,655.66)"
           style="font-variant:normal;font-weight:bold;font-size:9.96000004px;font-family:Arial;-inkscape-font-specification:Arial-BoldMT;writing-mode:lr-tb;fill:#467126;fill-opacity:1;fill-rule:nonzero;stroke:none"
           id="text408"><tspan
             x="0 7.9082398 10.67712 16.76268"
             y="0"
             sodipodi:role="line"
             id="tspan406">wind</tspan></text>
</g></g><g
       id="g410"><g
         id="g412"
         clip-path="url(#clipPath416)"><text
           transform="matrix(1,0,0,-1,432.07,632.74)"
           style="font-variant:normal;font-weight:bold;font-size:9.96000004px;font-family:Arial;-inkscape-font-specification:Arial-BoldMT;writing-mode:lr-tb;fill:#0071a1;fill-opacity:1;fill-rule:nonzero;stroke:none"
           id="text420"><tspan
             x="0 6.1054802 11.5038 17.60928 21.45384"
             y="0"
             sodipodi:role="line"
             id="tspan418">hydro</tspan></text>
</g></g><g
       id="g422"><g
         id="g424"
         clip-path="url(#clipPath428)"><text
           transform="matrix(1,0,0,-1,432.07,586.66)"
           style="font-variant:normal;font-weight:bold;font-size:9.96000004px;font-family:Arial;-inkscape-font-specification:Arial-BoldMT;writing-mode:lr-tb;fill:#a6a6a6;fill-opacity:1;fill-rule:nonzero;stroke:none"
           id="text432"><tspan
             x="0 5.5377598 8.3066397 11.03568 13.90416 20.00964 23.356199 29.461679 34.999439"
             y="0"
             sodipodi:role="line"
             id="tspan430">all other</tspan></text>
</g></g><g
       id="g434"><g
         id="g436"
         clip-path="url(#clipPath440)"><text
           transform="matrix(1,0,0,-1,432.07,575.14)"
           style="font-variant:normal;font-weight:bold;font-size:9.96000004px;font-family:Arial;-inkscape-font-specification:Arial-BoldMT;writing-mode:lr-tb;fill:#a6a6a6;fill-opacity:1;fill-rule:nonzero;stroke:none"
           id="text444"><tspan
             x="0 3.34656 9.4520397 14.9898 17.75868"
             y="0"
             sodipodi:role="line"
             id="tspan442">fuels</tspan></text>
</g></g><g
       id="g466"
       transform="matrix(0.75000002,0,0,-0.75000002,463.39236,553.27825)"><path
         style="fill:#455560;stroke-width:0.27698913"
         inkscape:connector-curvature="0"
         id="path1537"
         d="m 3.6839501,11.98809 c 0.4154837,-0.470881 0.941763,-0.692473 1.6065369,-0.692473 0.637075,0 1.1633544,0.221592 1.5788384,0.664774 0.415483,0.443183 0.637075,1.02486 0.637075,1.772731 v 0.166193 H 3.0191762 c 0.027699,-0.830967 0.2769891,-1.468042 0.6647739,-1.911225 m 5.1519973,5.678277 c -0.470881,0.470882 -0.830967,0.803269 -1.135655,0.969462 -0.387785,0.221592 -0.858666,0.332387 -1.3849456,0.332387 -0.5816772,0 -1.1356554,-0.193892 -1.6619348,-0.581677 C 4.1271327,17.998754 3.711649,17.472475 3.4346599,16.780002 3.1576707,16.087529 3.0191762,15.31196 3.0191762,14.370197 v -0.110796 h 6.0937612 v -0.166193 c 0,-0.914065 -0.360086,-1.689634 -1.080258,-2.326709 -0.720172,-0.664774 -1.5511391,-0.969462 -2.5206011,-0.969462 -1.1633543,0 -2.1605152,0.443183 -2.9637836,1.301849 -0.8032685,0.858666 -1.1910533,1.938924 -1.1910533,3.213074 0,1.246451 0.4154837,2.299009 1.27415,3.129977 0.8309674,0.830967 1.911225,1.218752 3.2130739,1.218752 0.7201717,0 1.3572471,-0.138495 1.8835261,-0.415484 0.526279,-0.276989 1.02486,-0.74787 1.52344,-1.384945 v 0 z"
         class="st0" /><path
         style="fill:#455560;stroke-width:0.27698913"
         inkscape:connector-curvature="0"
         id="path1539"
         d="m 20.164803,17.694066 c -0.138495,0.304688 -0.387785,0.553978 -0.747871,0.747871 -0.332387,0.193892 -0.664774,0.304688 -0.997161,0.304688 -0.332387,0 -0.637075,-0.138495 -0.886365,-0.443183 -0.24929,-0.304688 -0.387785,-0.664774 -0.387785,-1.080257 0,-0.470882 0.110796,-0.858667 0.360086,-1.135656 0.221591,-0.276989 0.77557,-0.553978 1.606537,-0.858666 0.443183,-0.166194 0.803269,-0.276989 1.02486,-0.387785 v 2.852988 z m 2.769891,0.332387 c -0.110796,0.304688 -0.443183,0.720172 -0.692473,0.720172 -0.193892,0 -0.304688,-0.0831 -0.360086,-0.276989 -0.0554,-0.193893 -0.110795,-0.52628 -0.110795,-1.02486 v -3.57316 c 0,-0.969462 -0.276989,-1.717332 -0.830968,-2.243612 -0.553978,-0.553978 -1.27415,-0.803268 -2.188214,-0.803268 -0.74787,0 -1.412644,0.221591 -1.994321,0.692473 -0.553979,0.443182 -0.914065,1.052558 -1.080258,1.800429 l 0.415484,0.166193 c 0.166193,-0.553978 0.443182,-0.99716 0.830967,-1.301848 0.387785,-0.332387 0.858666,-0.470882 1.384946,-0.470882 0.581677,0 1.024859,0.193892 1.357246,0.553978 0.332387,0.360086 0.498581,0.858667 0.498581,1.468043 v 0.609376 c -0.276989,0.166193 -0.803269,0.332387 -1.578838,0.553978 -1.246451,0.332387 -2.04972,0.720172 -2.465203,1.080258 -0.415484,0.387784 -0.609377,0.858666 -0.609377,1.440343 0,0.609376 0.221592,1.135655 0.692473,1.578838 0.470882,0.443183 1.02486,0.664774 1.689634,0.664774 0.443183,0 0.803268,-0.0831 1.135655,-0.24929 0.332387,-0.166194 0.692473,-0.470882 1.107957,-0.941763 0.24929,0.803268 0.720172,1.191053 1.412644,1.191053 0.470882,0 0.858667,-0.166193 1.135656,-0.470882 0.24929,-0.276989 0.415484,-0.609376 0.470881,-1.052558 z"
         class="st0" /><path
         style="fill:#455560;stroke-width:0.27698913"
         inkscape:connector-curvature="0"
         id="path1541"
         d="m 13.489365,18.746625 c -0.193893,-0.166194 -0.304688,-0.470882 -0.304688,-0.914064 v -7.090922 h -0.52628 v 0.0277 c -0.49858,0.221591 -2.6590946,0.276989 -2.6590946,0.276989 v 0.387785 c 0.6924726,0 1.1356546,0.0831 1.3018486,0.24929 0.166193,0.166194 0.276989,0.498581 0.276989,0.997161 v 5.151998 c 0,0.470881 -0.0831,0.775569 -0.276989,0.941763 -0.193893,0.138494 -0.609376,0.221591 -1.3018486,0.221591 v 0.387785 h 4.5703196 v -0.387785 c -0.526279,0 -0.886365,-0.0831 -1.080257,-0.24929"
         class="st0" /><path
         style="fill:#6cb33f;stroke-width:0.27698913"
         inkscape:connector-curvature="0"
         id="path1543"
         d="m 4.1271327,9.4120907 c 0.027699,-0.0277 0.083097,-0.0831 0.1661935,-0.166193 2.4929022,-2.409806 5.2350942,-4.404127 7.9772868,-5.816772 1.634236,-0.830967 3.213074,-1.412644 4.708815,-1.717333 3.323869,-0.692472 5.401288,0.110796 6.038363,0.637075 0.110795,0.0831 0.166193,0.166194 0.193892,0.249291 -1.938924,-0.193893 -3.960944,-0.0831 -6.066062,0.332387 -3.794751,0.803268 -7.6448996,2.575999 -11.4396503,5.290492 -0.4985804,0.360086 -0.9694619,0.720172 -1.4403435,1.080258 -0.055398,0.0554 -0.1107956,0.0831 -0.1384945,0.110795"
         class="st1" /><path
         style="fill:#ffdd00;stroke-width:0.27698913"
         inkscape:connector-curvature="0"
         id="path1545"
         d="m 3.2961653,9.6059837 c 0.027699,-0.0554 0.083097,-0.166194 0.1938924,-0.276989 0.8309674,-1.191054 2.1051174,-2.908386 3.1022782,-4.09944 2.3544075,-2.769891 4.5980191,-3.600858 5.7059761,-3.82245 0.553978,-0.110795 0.969462,-0.110795 1.135655,-0.110795 0,0 -0.0277,0.0554 -0.110796,0.110795 -1.191053,0.637075 -4.3764276,2.326709 -7.3402112,5.262794 -0.7201717,0.692473 -1.3572467,1.440343 -1.9112249,2.049719 -0.2215913,0.249291 -0.3877848,0.443183 -0.5816772,0.637075 -0.055398,0.138495 -0.1384946,0.193893 -0.1938924,0.249291"
         class="st2" /><path
         style="fill:#0081c6;stroke-width:0.27698913"
         inkscape:connector-curvature="0"
         id="path1547"
         d="m 24.652027,15.921336 c 0,-0.110796 0.0277,-0.276989 0.0831,-0.443183 0.720172,-2.132816 0.664774,-4.127138 -0.166193,-5.7613744 -1.717333,-3.3792669 -5.844471,-4.7365139 -11.079565,-3.6562559 -2.409806,0.49858 -4.9304066,1.468042 -7.4787062,2.908386 -0.1384946,0.0831 -0.2769892,0.166193 -0.4154837,0.24929 -0.1384946,0.0831 -0.2215913,0.138494 -0.3046881,0.166193 0.055398,-0.0554 0.1384946,-0.110795 0.2769891,-0.193892 0.7201718,-0.49858 1.4957413,-0.997161 2.2713113,-1.412645 2.2159126,-1.218752 4.5703196,-2.132816 6.8139316,-2.603697 5.262794,-1.080258 9.528426,0.166193 11.079565,3.268471 0.52628,1.052559 0.720172,2.2436123 0.581677,3.5454613 -0.166193,1.495741 -0.692472,2.79759 -1.661934,3.933246"
         class="st3" /><path
         style="fill:#455560;stroke-width:0.27698913"
         inkscape:connector-curvature="0"
         id="path1549"
         d="m 13.129279,8.8027147 c 0,0.498581 -0.387785,0.8863649 -0.886365,0.8863649 -0.498581,0 -0.886365,-0.3877839 -0.886365,-0.8863649 0,-0.49858 0.415483,-0.886365 0.886365,-0.886365 0.470881,-0.0277 0.886365,0.387785 0.886365,0.886365"
         class="st0" /></g></g><style
     id="style1535"
     type="text/css">
	.st0{fill:#455560;}
	.st1{fill:#6CB33F;}
	.st2{fill:#FFDD00;}
	.st3{fill:#0081C6;}
</style></svg>